<svg width="189" height="38" viewBox="0 0 189 38" fill="none" xmlns="http://www.w3.org/2000/svg">
<path d="M10.8968 24.9562C10.9325 24.9728 10.9713 24.982 11.0107 24.983H11.1225C11.5707 24.9693 12.0113 24.866 12.4173 24.6795C12.8095 24.4958 13.0078 24.12 13.0078 23.5502C13.0078 23.0176 12.8201 22.6597 12.4447 22.4767C12.0663 22.2923 11.6555 22.1802 11.2342 22.1463H10.8968L7.5227 22.1174C5.9481 22.1367 4.7053 21.9261 3.79428 21.4857C2.88326 21.0452 2.41932 19.9249 2.40245 18.1246C2.38277 16.4358 2.85163 15.2418 3.80904 14.5426C4.76645 13.8434 6.04159 13.4952 7.63447 13.498L16.0466 13.4691V16.4998H9.12541C9.07519 16.5169 9.02251 16.5259 8.96936 16.5266H8.02671C7.69275 16.5449 7.36454 16.6196 7.05665 16.7476C6.90441 16.8106 6.76993 16.9086 6.66458 17.0333C6.55923 17.158 6.48611 17.3057 6.45141 17.4639C6.30168 18.106 6.43243 18.5478 6.84576 18.7853C7.28141 19.0307 7.77726 19.1549 8.27977 19.1445L11.8247 19.1156C13.2137 19.1349 14.3771 19.4514 15.3148 20.0653C16.2526 20.6791 16.7495 21.7396 16.8058 23.2467V23.3293C16.8321 24.4807 16.4713 25.6087 15.7788 26.5397C15.0758 27.5031 14.0678 27.9849 12.7547 27.9849H2.6534V24.9562H10.8968Z" fill="white"/>
<path d="M23.6195 8.20862V20.439L29.9228 13.4691H34.8743L28.0037 20.5752L34.868 27.9849H29.5959L23.6195 20.9345V27.9849H19.7034V8.20862H23.6195Z" fill="#F07527"/>
<path d="M42.8853 24.789H46.0359V13.4691H49.9478V27.5989C49.9478 29.4528 49.5071 30.8533 48.6256 31.8002C47.7441 32.7471 46.3277 33.2199 44.3763 33.2185H36.6938V30.2704H43.6994C44.4859 30.2518 45.0785 30.0639 45.4708 29.6923C45.863 29.3207 46.0528 28.7571 46.0338 27.9849H42.5753C40.5677 27.9849 39.0395 27.5899 37.9907 26.7999C36.9419 26.0098 36.4161 24.5592 36.4133 22.4478V13.4691H40.2978V22.1175C40.2978 23.1828 40.4616 23.8992 40.7892 24.2667C41.1167 24.6342 41.8155 24.8179 42.8853 24.8179V24.789Z" fill="white"/>
<path d="M61.4814 24.9562C61.517 24.9728 61.5558 24.982 61.5953 24.983H61.707C62.1552 24.9693 62.5959 24.866 63.0018 24.6795C63.3969 24.4965 63.5937 24.12 63.5923 23.5502C63.5923 23.0176 63.4046 22.6597 63.0293 22.4767C62.6515 22.2926 62.2414 22.1805 61.8209 22.1463H61.4814L58.1072 22.1174C56.5298 22.1367 55.287 21.9261 54.3788 21.4857C53.4706 21.0452 53.006 19.9249 52.9849 18.1246C52.9666 16.4358 53.4362 15.2418 54.3936 14.5426C55.351 13.8434 56.6261 13.4952 58.219 13.498L66.6396 13.4691V16.4998H59.71C59.6605 16.5168 59.6085 16.5259 59.556 16.5266H58.6134C58.2787 16.5448 57.9498 16.6196 57.6412 16.7476C57.4892 16.8106 57.3549 16.9086 57.2499 17.0334C57.1449 17.1581 57.0722 17.3058 57.0381 17.4639C56.8862 18.106 57.0191 18.5478 57.4303 18.7853C57.8667 19.0306 58.3633 19.1548 58.8664 19.1445L62.4219 19.1156C63.8095 19.1349 64.9722 19.4514 65.9099 20.0653C66.8477 20.6791 67.3446 21.7396 67.4009 23.2467V23.3293C67.4281 24.4808 67.0672 25.6091 66.3739 26.5397C65.6709 27.5031 64.6629 27.9849 63.3498 27.9849H53.2485V24.9562H61.4814Z" fill="white"/>
<path d="M78.2499 24.8716H82.4127V27.9849H77.0964C76.0976 27.9851 75.1019 27.8777 74.1271 27.6649C73.1451 27.4453 72.2443 26.9636 71.5248 26.2734C70.8872 25.6665 70.3802 24.9406 70.0339 24.1386C69.6812 23.3362 69.4537 22.4865 69.3591 21.6178C69.3591 21.4898 69.3591 21.3556 69.3443 21.2194C69.3295 21.0831 69.3316 20.9489 69.3316 20.8189C69.3316 20.6537 69.3359 20.4885 69.3443 20.3234C69.3548 20.1582 69.3675 19.993 69.3865 19.8279C69.4652 18.9734 69.6838 18.1369 70.0339 17.3504C70.3831 16.5543 70.8898 15.8337 71.5248 15.2301C72.2466 14.5416 73.1462 14.0584 74.1271 13.8324C75.1006 13.6111 76.097 13.5002 77.0964 13.5021L82.4127 13.4732V16.6092H78.2499C78.1906 16.6278 78.1287 16.6369 78.0664 16.6361H77.2651C76.8979 16.6361 76.5313 16.6637 76.1685 16.7187C75.8103 16.7748 75.4661 16.8967 75.1541 17.0779C74.5018 17.4334 74.0063 18.0119 73.7623 18.7027C73.5273 19.3859 73.4084 20.1021 73.4101 20.823C73.4269 21.5238 73.5616 22.2172 73.8087 22.8751C74.0572 23.5335 74.5352 24.0848 75.1584 24.4318C75.47 24.6133 75.8144 24.7345 76.1727 24.789C76.5359 24.8456 76.902 24.8828 77.2693 24.9005H78.2541L78.2499 24.8716Z" fill="white"/>
<path d="M91.5867 13.4691C93.7054 13.4884 94.9334 13.966 95.2708 14.9019C95.6083 15.8378 95.765 17.0958 95.7411 18.6759V19.5843L92 19.5575V18.9505C92 17.6099 91.8918 16.8295 91.6753 16.6093C91.4588 16.3891 90.6757 16.279 89.326 16.279H88.9043V27.9849H85.0029V13.4691H91.5867Z" fill="white"/>
<path d="M106.553 13.4691C107.391 13.4852 108.225 13.5821 109.043 13.7582C109.864 13.9457 110.611 14.3624 111.194 14.9577C111.729 15.4565 112.122 16.0824 112.335 16.7745C112.55 17.4714 112.659 18.1956 112.658 18.9236V27.9849H102.137C100.617 27.9849 99.4539 27.5761 98.6469 26.7586C97.8399 25.941 97.4744 24.8076 97.5503 23.3583C97.6811 21.6144 98.3095 20.4851 99.4356 19.9704C100.562 19.4556 101.902 19.1989 103.457 19.2003L108.605 19.1714C108.662 17.9781 108.345 17.2348 107.662 16.9396C106.834 16.6213 105.949 16.4716 105.06 16.4999L98.533 16.471V13.4691H106.553ZM103.74 25.0657H108.634V22.0638H104.02C103.986 22.0814 103.947 22.0906 103.908 22.0907H103.795C103.294 22.1046 102.8 22.2024 102.333 22.3797C101.882 22.5545 101.647 22.9633 101.629 23.606C101.591 24.3217 101.793 24.7436 102.234 24.8716C102.724 25.0084 103.23 25.0826 103.74 25.0925V25.0657Z" fill="white"/>
<path d="M123.657 13.4691C125.872 13.4883 127.602 14.1125 128.849 15.3416C130.096 16.5707 130.767 18.2512 130.861 20.3832C130.919 21.3463 130.824 22.3123 130.579 23.2467C130.341 24.1736 129.899 25.0386 129.286 25.782C128.535 26.7358 127.654 27.3414 126.641 27.5988C125.584 27.8619 124.496 27.9916 123.404 27.9849H120.03V33.2185H116.118V13.4691H123.657ZM120.028 16.6092V24.8674C120.154 24.8858 120.281 24.8954 120.408 24.8963H120.789C122.588 24.9156 124.05 24.7366 125.178 24.3595C126.305 23.9824 126.84 22.646 126.781 20.3502C126.726 18.4233 126.163 17.3125 125.094 17.018C123.835 16.7032 122.537 16.5642 121.239 16.6051C121.028 16.6237 120.832 16.6319 120.633 16.6319H120.028V16.6092Z" fill="white"/>
<path d="M136.841 27.6132C135.836 27.3547 134.932 26.8135 134.238 26.0566C133.643 25.4243 133.196 24.6725 132.929 23.8537C132.657 23.032 132.492 22.1803 132.435 21.3185V20.3977C132.435 20.2726 132.445 20.1477 132.463 20.024C132.52 19.1947 132.686 18.376 132.956 17.5878C133.224 16.7955 133.66 16.0679 134.236 15.4531C134.923 14.6825 135.829 14.131 136.839 13.8696C137.836 13.6203 138.861 13.4954 139.89 13.498L145.603 13.4691V16.4998H140.428C139.34 16.5191 138.467 16.6794 137.811 16.9808C137.154 17.2823 136.807 18.0393 136.769 19.2518L145.605 19.2229V22.2558H136.769C136.807 23.5234 137.135 24.2948 137.754 24.5701C138.372 24.8454 139.254 24.983 140.398 24.983L145.605 24.9562V27.9849H139.892C138.863 27.9874 137.838 27.8625 136.841 27.6132Z" fill="white"/>
<path d="M154.692 13.4691C156.812 13.4883 158.041 13.9659 158.378 14.9018C158.715 15.8378 158.874 17.0958 158.855 18.6758V19.5842L155.113 19.5574V18.9504C155.113 17.6098 155.005 16.8294 154.789 16.6092C154.572 16.389 153.79 16.2789 152.442 16.2789H152.02V27.9849H148.108V13.4691H154.692Z" fill="white"/>
<path d="M169.339 24.9562C169.375 24.9729 169.414 24.982 169.453 24.9831H169.565C170.013 24.9693 170.454 24.866 170.86 24.6796C171.255 24.4965 171.452 24.1201 171.45 23.5503C171.45 23.0176 171.263 22.6598 170.887 22.4767C170.51 22.2927 170.099 22.1806 169.679 22.1464H169.339L165.965 22.1175C164.389 22.1368 163.147 21.9262 162.239 21.4857C161.331 21.0453 160.866 19.9249 160.845 18.1247C160.827 16.4359 161.296 15.2419 162.252 14.5427C163.208 13.8435 164.483 13.4953 166.079 13.498L174.491 13.4691V16.4999H167.576C167.527 16.5169 167.475 16.526 167.422 16.5267H166.48C166.145 16.5449 165.816 16.6196 165.508 16.7476C165.357 16.812 165.225 16.9106 165.121 17.0352C165.017 17.1598 164.945 17.3068 164.911 17.464C164.761 18.1061 164.894 18.5479 165.305 18.7853C165.742 19.0307 166.238 19.1549 166.741 19.1445L170.286 19.1156C171.674 19.1349 172.837 19.4515 173.774 20.0653C174.712 20.6792 175.209 21.7397 175.265 23.2468V23.3294C175.292 24.4809 174.932 25.6092 174.238 26.5397C173.535 27.5032 172.527 27.9849 171.214 27.9849H161.115V24.9562H169.339Z" fill="white"/>
<path d="M184.537 13.1945L181.222 10.5602L177.937 13.1305L176.844 12.0301L180.68 9.02827C180.837 8.90823 181.03 8.84302 181.23 8.84302C181.429 8.84302 181.622 8.90823 181.779 9.02827L185.64 12.1003L184.537 13.1945Z" fill="#F07527"/>
<path d="M184.537 9.9098L181.222 7.27751L177.937 9.84787L176.844 8.74746L180.68 5.74562C180.837 5.62558 181.03 5.56036 181.23 5.56036C181.429 5.56036 181.622 5.62558 181.779 5.74562L185.64 8.81766L184.537 9.9098Z" fill="#F07527"/>
<path d="M179.679 13.4959H178.026V27.9849H179.679V13.4959Z" fill="white"/>
<path d="M184.452 13.4959H182.799V27.9849H184.452V13.4959Z" fill="white"/>
<path d="M183.626 14.7615H178.852V16.2727H183.626V14.7615Z" fill="white"/>
<path d="M183.626 18.0668H178.852V19.5781H183.626V18.0668Z" fill="white"/>
<path d="M183.626 21.3721H178.852V22.8834H183.626V21.3721Z" fill="white"/>
<path d="M183.626 24.6775H178.852V26.1887H183.626V24.6775Z" fill="white"/>
</svg>
